<?xml version="1.0" standalone="no"?>
<!DOCTYPE svg PUBLIC "-//W3C//DTD SVG 20010904//EN"
 "http://www.w3.org/TR/2001/REC-SVG-20010904/DTD/svg10.dtd">
<svg version="1.0" xmlns="http://www.w3.org/2000/svg"
 width="512.000000pt" height="512.000000pt" viewBox="0 0 512.000000 512.000000"
 preserveAspectRatio="xMidYMid meet">

<g transform="translate(0.000000,512.000000) scale(0.100000,-0.100000)"
fill="#000000" stroke="none">
<path d="M2329 5101 c-107 -34 -175 -97 -227 -209 -27 -56 -27 -60 -30 -309
l-4 -253 -457 0 -458 0 -61 -31 c-70 -34 -115 -85 -143 -159 -18 -48 -19 -91
-19 -910 l0 -860 -94 -93 c-213 -211 -316 -455 -316 -752 0 -178 41 -348 120
-493 l30 -56 -289 -291 c-183 -183 -297 -306 -310 -332 -28 -57 -28 -142 0
-200 27 -56 110 -128 165 -143 51 -14 119 -8 167 16 17 9 163 147 324 306
l291 291 84 -41 c335 -164 725 -144 1031 51 l57 37 1327 2 1328 3 50 23 c65
30 122 85 151 147 l24 50 0 1601 c0 1786 6 1651 -71 1738 -22 24 -61 55 -87
68 -47 23 -50 23 -512 28 l-465 5 -5 255 -5 256 -32 65 c-39 79 -102 140 -181
177 l-57 27 -635 2 c-589 2 -639 1 -691 -16z m1330 -161 c55 -27 98 -84 111
-144 7 -31 10 -133 8 -256 l-3 -205 -773 -3 -773 -2 3 249 3 249 30 43 c17 23
50 53 74 66 l44 23 619 0 c596 0 620 -1 657 -20z m1180 -778 c19 -9 44 -30 55
-45 l21 -28 3 -1572 c1 -1114 -1 -1580 -9 -1598 -6 -15 -24 -40 -40 -55 l-30
-29 -1235 -3 c-992 -2 -1234 0 -1228 10 4 7 22 31 39 53 184 233 258 594 180
885 -12 43 -15 130 -15 408 l0 354 -29 29 -29 29 -180 0 c-166 0 -181 -2 -206
-21 -23 -18 -26 -28 -26 -81 0 -33 -4 -58 -8 -56 -5 2 -47 21 -95 42 l-86 40
-3 234 c-4 298 19 272 -237 272 -146 0 -191 -3 -207 -14 -17 -13 -19 -31 -24
-227 l-5 -212 -101 -23 c-56 -12 -135 -36 -175 -53 -41 -17 -77 -31 -82 -31
-4 0 -6 361 -5 803 3 781 4 803 23 836 11 18 36 42 55 52 33 18 98 19 1840 19
1699 0 1807 -1 1839 -18z m-3079 -1440 l0 -158 -80 10 -80 9 0 148 0 149 80 0
80 0 0 -158z m660 -423 l0 -140 -80 83 -79 83 -1 58 0 57 80 0 80 0 0 -141z
m-643 100 c159 -36 294 -110 416 -228 120 -115 194 -236 244 -398 24 -80 27
-103 27 -248 0 -145 -3 -168 -27 -248 -50 -162 -124 -284 -243 -398 -178 -169
-377 -250 -621 -250 -258 0 -480 94 -654 278 -155 165 -249 398 -249 618 0
152 55 342 137 473 206 331 588 489 970 401z m-949 -1622 l62 -63 -278 -277
c-261 -260 -280 -277 -314 -277 -29 0 -42 7 -67 35 -57 65 -60 60 246 367 153
153 280 278 283 278 3 0 34 -28 68 -63z"/>
<path d="M4052 3720 c-31 -29 -38 -65 -18 -96 21 -32 54 -44 117 -44 27 0 49
-4 49 -8 0 -10 -567 -486 -584 -490 -6 -1 -126 83 -266 188 -162 122 -262 190
-277 190 -13 0 -162 -85 -339 -195 -173 -107 -318 -195 -322 -195 -4 0 -149
88 -322 195 -173 107 -325 195 -337 195 -12 0 -34 -11 -49 -23 -33 -29 -37
-79 -8 -106 10 -10 169 -111 353 -225 227 -139 344 -206 362 -206 24 0 265
142 620 366 l37 23 258 -194 c209 -157 265 -195 291 -195 27 0 77 38 348 265
174 146 318 265 321 265 3 0 2 -27 -2 -60 -6 -55 -4 -63 16 -85 36 -38 108
-31 125 12 9 25 55 307 55 341 0 17 -10 38 -23 50 -20 19 -45 24 -187 37 -205
19 -192 19 -218 -5z"/>
<path d="M4133 2810 c-12 -5 -26 -18 -32 -29 -8 -13 -11 -268 -11 -804 l0
-784 23 -21 c22 -21 32 -22 209 -22 168 0 188 2 209 19 l24 19 3 785 2 785
-24 29 -24 28 -179 2 c-98 1 -188 -2 -200 -7z m267 -830 l0 -680 -80 0 -80 0
0 680 0 680 80 0 80 0 0 -680z"/>
<path d="M2796 2779 l-26 -20 0 -783 0 -783 23 -21 c22 -21 32 -22 209 -22
168 0 188 2 209 19 l24 19 3 769 c2 535 -1 776 -8 794 -18 43 -47 49 -234 49
-160 0 -175 -2 -200 -21z m284 -809 l0 -670 -80 0 -80 0 0 670 0 670 80 0 80
0 0 -670z"/>
<path d="M3455 2125 l-25 -24 0 -454 0 -454 23 -21 c22 -21 32 -22 209 -22
168 0 188 2 209 19 l24 19 3 443 c2 305 -1 452 -8 470 -18 43 -47 49 -236 49
-172 0 -175 0 -199 -25z m285 -480 l0 -345 -80 0 -80 0 0 345 0 345 80 0 80 0
0 -345z"/>
<path d="M1390 2230 c-210 -56 -375 -191 -471 -385 -140 -286 -86 -608 141
-835 89 -88 157 -131 277 -173 73 -25 108 -31 204 -35 142 -5 242 16 368 80
106 53 228 169 289 273 106 183 129 404 62 606 -70 209 -249 384 -470 459 -96
33 -297 38 -400 10z m295 -145 c114 -24 207 -75 290 -158 115 -115 165 -237
165 -404 0 -272 -187 -502 -455 -558 -88 -18 -142 -18 -230 0 -443 93 -608
641 -290 961 141 141 330 199 520 159z"/>
</g>
</svg>
