<?xml version="1.0" standalone="no"?>
<!DOCTYPE svg PUBLIC "-//W3C//DTD SVG 20010904//EN"
 "http://www.w3.org/TR/2001/REC-SVG-20010904/DTD/svg10.dtd">
<svg version="1.0" xmlns="http://www.w3.org/2000/svg"
 width="512.000000pt" height="512.000000pt" viewBox="0 0 512.000000 512.000000"
 preserveAspectRatio="xMidYMid meet">

<g transform="translate(0.000000,512.000000) scale(0.100000,-0.100000)"
fill="#000000" stroke="none">
<path d="M2577 4729 c-82 -11 -105 -22 -113 -53 -9 -36 -2 -57 26 -78 24 -17
33 -18 124 -7 128 15 462 6 576 -15 330 -62 615 -185 871 -375 1013 -754 1112
-2232 208 -3106 -101 -97 -216 -192 -223 -184 -2 2 5 53 16 113 22 122 17 149
-28 166 -33 13 -60 5 -79 -23 -14 -22 -75 -346 -75 -399 0 -52 22 -62 221 -96
102 -18 195 -32 207 -32 31 0 62 35 62 68 0 45 -31 64 -131 82 l-90 15 63 51
c364 293 631 707 747 1157 106 409 90 846 -45 1247 -268 796 -972 1366 -1814
1470 -99 12 -425 11 -523 -1z"/>
<path d="M1340 4460 c-26 -26 -26 -72 0 -95 13 -12 56 -25 112 -35 l91 -16
-74 -59 c-152 -122 -335 -323 -444 -487 -28 -43 -36 -64 -31 -82 9 -37 34 -56
72 -56 30 0 39 6 67 47 131 190 265 338 412 459 53 42 97 75 99 73 2 -2 -5
-55 -16 -116 -19 -103 -19 -115 -5 -137 23 -34 64 -42 96 -18 23 17 29 36 58
193 18 96 32 190 33 210 0 64 -9 69 -211 105 -216 40 -233 40 -259 14z"/>
<path d="M2635 4086 c-65 -29 -105 -96 -105 -176 0 -19 -11 -58 -24 -85 -41
-89 -129 -144 -229 -145 -68 0 -115 18 -173 65 -116 95 -181 76 -357 -104
-123 -125 -139 -150 -139 -218 0 -47 10 -69 63 -135 137 -174 11 -416 -217
-418 -38 0 -91 -35 -121 -79 -22 -32 -23 -43 -23 -231 0 -188 1 -199 23 -231
30 -44 83 -79 121 -79 133 -1 240 -84 267 -206 17 -75 1 -143 -50 -211 -55
-72 -63 -89 -63 -136 0 -68 16 -93 139 -218 176 -180 241 -199 357 -104 58 47
105 65 173 65 65 0 132 -26 177 -68 37 -35 76 -117 76 -162 0 -82 45 -154 113
-179 37 -14 367 -14 404 0 67 25 113 95 113 172 0 54 40 137 83 173 104 88
246 86 349 -4 63 -56 123 -66 193 -32 24 12 93 72 162 143 101 103 121 129
131 168 14 57 3 103 -39 155 -72 90 -91 166 -66 255 31 106 116 173 236 185
71 8 114 32 148 83 22 32 23 43 23 231 0 188 -1 199 -23 231 -34 51 -77 75
-148 83 -120 12 -205 79 -236 185 -25 89 -6 165 66 255 55 69 60 148 13 213
-41 56 -240 243 -275 258 -68 28 -125 17 -185 -37 -103 -90 -245 -92 -349 -4
-43 36 -83 119 -83 173 0 77 -46 147 -113 172 -43 16 -375 14 -412 -3z m373
-138 c7 -7 12 -26 12 -43 0 -48 29 -135 62 -187 40 -63 89 -105 168 -142 59
-28 74 -31 165 -31 88 0 107 3 159 27 32 16 74 41 92 58 19 16 40 30 47 30 12
0 237 -221 237 -232 0 -3 -18 -28 -40 -54 -76 -93 -105 -219 -76 -334 43 -168
163 -276 337 -303 l69 -11 0 -166 0 -166 -69 -11 c-174 -27 -294 -135 -337
-303 -29 -115 0 -241 76 -334 22 -26 40 -51 40 -54 0 -11 -225 -232 -237 -232
-7 0 -28 14 -47 30 -18 17 -60 42 -92 58 -52 24 -71 27 -159 27 -91 0 -106 -3
-165 -31 -79 -37 -128 -79 -168 -142 -33 -52 -62 -139 -62 -187 0 -52 -10 -55
-175 -55 -165 0 -175 3 -175 56 0 18 -9 60 -20 95 -81 257 -394 353 -612 188
-29 -21 -57 -39 -63 -39 -16 0 -225 213 -225 230 0 9 18 39 40 69 44 58 80
160 80 225 0 51 -23 144 -49 194 -55 108 -167 184 -300 205 l-71 11 0 166 0
166 71 11 c133 21 245 97 300 205 26 50 49 143 49 194 0 65 -36 167 -80 225
-22 30 -40 60 -40 69 0 16 209 230 225 230 6 0 34 -18 63 -39 217 -164 533
-67 612 188 11 35 20 77 20 95 0 18 5 37 12 44 17 17 309 17 326 0z"/>
<path d="M2757 3329 c-261 -30 -486 -189 -603 -424 -63 -129 -79 -196 -79
-345 0 -145 15 -213 74 -335 140 -294 456 -471 777 -434 319 36 568 244 665
559 20 63 24 97 24 210 0 155 -18 229 -86 360 -146 281 -456 446 -772 409z
m246 -155 c122 -29 255 -114 333 -212 168 -213 190 -499 57 -720 -108 -178
-271 -286 -470 -311 -302 -38 -593 150 -686 444 -17 55 -22 94 -22 185 0 134
21 215 82 319 144 246 426 363 706 295z"/>
<path d="M2795 3045 c-17 -16 -25 -35 -25 -58 0 -28 -5 -35 -32 -45 -129 -46
-187 -203 -121 -324 40 -73 129 -128 209 -128 74 0 134 -43 134 -97 0 -45 -14
-69 -50 -88 -50 -26 -101 -19 -156 20 -56 40 -85 44 -114 15 -48 -48 -11 -113
93 -166 40 -21 47 -29 47 -54 0 -37 31 -70 65 -70 35 0 75 42 75 78 0 22 7 32
28 41 98 44 152 121 152 215 0 31 -6 71 -13 89 -35 83 -121 142 -224 153 -32
4 -70 13 -85 20 -78 40 -57 153 32 173 47 10 119 -11 150 -44 44 -47 120 -23
120 39 0 46 -30 80 -105 117 -61 30 -65 34 -65 65 0 68 -68 97 -115 49z"/>
<path d="M250 3410 c-11 -11 -20 -33 -20 -50 0 -17 9 -39 20 -50 19 -19 33
-20 230 -20 197 0 211 1 230 20 28 28 27 84 -2 104 -19 13 -58 16 -230 16
-195 0 -209 -1 -228 -20z"/>
<path d="M880 3410 c-11 -11 -20 -33 -20 -50 0 -17 9 -39 20 -50 19 -19 33
-20 230 -20 197 0 211 1 230 20 28 28 27 84 -2 104 -19 13 -58 16 -230 16
-195 0 -209 -1 -228 -20z"/>
<path d="M112 2607 c-28 -30 -28 -68 1 -95 22 -21 32 -22 231 -22 206 0 207 0
231 25 14 13 25 34 25 45 0 12 -11 32 -25 45 -24 25 -25 25 -233 25 -205 0
-209 0 -230 -23z"/>
<path d="M742 2607 c-28 -30 -28 -68 1 -95 22 -21 32 -22 231 -22 206 0 207 0
231 25 14 13 25 34 25 45 0 12 -11 32 -25 45 -24 25 -25 25 -233 25 -205 0
-209 0 -230 -23z"/>
<path d="M255 1805 c-30 -30 -31 -54 -4 -89 l20 -26 214 0 214 0 20 26 c27 35
26 59 -4 89 -24 25 -25 25 -230 25 -205 0 -206 0 -230 -25z"/>
<path d="M885 1805 c-30 -30 -31 -54 -4 -89 l20 -26 214 0 214 0 20 26 c27 35
26 59 -4 89 -24 25 -25 25 -230 25 -205 0 -206 0 -230 -25z"/>
<path d="M1010 1470 c-31 -31 -24 -59 34 -145 292 -430 753 -753 1255 -879
182 -46 270 -58 483 -63 221 -6 386 7 425 33 30 19 31 76 2 105 -18 18 -27 19
-92 12 -117 -13 -503 -9 -587 6 -394 70 -707 213 -997 454 -146 122 -269 262
-418 475 -21 29 -77 30 -105 2z"/>
</g>
</svg>
