<?xml version="1.0" standalone="no"?>
<!DOCTYPE svg PUBLIC "-//W3C//DTD SVG 20010904//EN"
 "http://www.w3.org/TR/2001/REC-SVG-20010904/DTD/svg10.dtd">
<svg version="1.0" xmlns="http://www.w3.org/2000/svg"
 width="512.000000pt" height="512.000000pt" viewBox="0 0 512.000000 512.000000"
 preserveAspectRatio="xMidYMid meet">

<g transform="translate(0.000000,512.000000) scale(0.100000,-0.100000)"
fill="#000000" stroke="none">
<path d="M1208 5029 c-120 -28 -230 -120 -287 -239 -34 -71 -36 -80 -35 -175
0 -76 6 -114 22 -157 l21 -58 -241 0 c-160 0 -255 -4 -282 -12 -55 -16 -138
-99 -154 -154 -9 -31 -12 -325 -12 -1226 l0 -1184 -30 -29 -30 -29 65 -66 c56
-57 65 -70 65 -102 0 -60 -33 -78 -141 -78 l-89 0 0 -320 0 -320 89 0 c109 0
141 -18 141 -79 0 -32 -8 -45 -65 -101 l-65 -65 227 -227 228 -228 65 65 c57
56 70 65 102 65 60 0 78 -33 78 -141 l0 -89 320 0 320 0 0 89 c0 108 18 141
78 141 32 0 45 -9 102 -65 l65 -65 228 228 227 227 -65 65 c-57 56 -65 69 -65
101 0 29 6 43 26 58 26 21 33 21 795 21 l769 0 2 -326 3 -325 700 606 c385
334 701 608 702 609 1 1 -45 36 -102 77 l-105 74 0 659 c0 522 -3 657 -12 653
-7 -2 -78 -26 -158 -52 -181 -59 -264 -68 -335 -36 -65 29 -83 46 -111 106
-22 45 -24 64 -24 195 0 131 2 150 24 195 28 60 46 77 111 106 71 32 154 23
335 -36 80 -26 151 -50 158 -52 17 -7 18 841 0 901 -16 55 -99 138 -154 154
-29 8 -139 12 -361 12 l-320 0 24 83 c48 161 9 320 -105 433 -98 97 -199 129
-386 122 -115 -4 -126 -6 -196 -39 -98 -46 -163 -111 -209 -209 -34 -71 -36
-80 -35 -175 0 -76 6 -114 22 -157 l21 -58 -243 0 c-250 0 -284 -4 -338 -42
-28 -19 -28 -19 -55 0 -57 39 -86 42 -418 42 l-322 0 24 83 c20 67 24 97 20
160 -12 184 -149 345 -328 386 -53 13 -249 12 -301 0z m297 -166 c97 -33 175
-143 175 -246 0 -29 -68 -261 -107 -364 -4 -10 85 -13 426 -13 l432 0 24 -25
25 -24 0 -432 c0 -341 3 -430 13 -426 6 2 77 26 157 52 181 59 264 68 335 36
65 -29 83 -46 111 -106 22 -45 24 -64 24 -195 0 -131 -2 -150 -24 -195 -28
-60 -46 -77 -111 -106 -71 -32 -154 -23 -335 36 -80 26 -151 50 -157 52 -10 4
-13 -106 -13 -531 l0 -536 -167 0 -168 0 -190 190 -190 190 -65 -65 c-56 -57
-69 -65 -101 -65 -61 0 -79 32 -79 141 l0 89 -320 0 -320 0 0 -89 c0 -109 -18
-141 -79 -141 -32 0 -45 8 -101 65 l-65 65 -117 -117 -118 -118 0 1103 0 1103
25 24 24 25 352 0 c277 0 350 3 346 13 -39 103 -107 335 -107 364 0 101 78
213 171 246 62 22 230 22 294 0z m2240 0 c97 -33 175 -143 175 -246 0 -29 -68
-261 -107 -364 -4 -10 85 -13 426 -13 l432 0 24 -25 25 -24 0 -319 0 -319 -67
20 c-48 14 -100 20 -178 21 -100 1 -115 -2 -167 -26 -80 -37 -152 -107 -191
-187 l-32 -66 0 -195 c0 -191 1 -196 27 -252 37 -80 107 -152 187 -191 63 -31
71 -32 176 -31 78 1 130 7 178 21 l67 20 0 -484 c0 -385 -3 -483 -12 -477 -7
5 -239 174 -515 376 -276 202 -504 368 -507 368 -3 0 -6 -142 -6 -315 l0 -315
-520 0 -520 0 0 424 0 423 68 -20 c47 -14 99 -20 177 -21 105 -1 113 0 176 31
80 39 150 111 187 191 26 56 27 61 27 252 0 193 0 196 -28 256 -36 77 -113
154 -192 191 -55 26 -69 28 -170 27 -78 -1 -130 -7 -177 -21 l-68 -20 0 319 0
319 25 24 24 25 352 0 c277 0 350 3 346 13 -39 103 -107 335 -107 364 0 101
78 213 171 246 62 22 230 22 294 0z m-2380 -2743 c26 -152 213 -238 350 -161
l50 28 111 -110 111 -109 -28 -51 c-60 -109 -28 -246 73 -314 26 -17 66 -34
88 -38 l40 -7 0 -158 0 -158 -37 -7 c-118 -22 -193 -114 -193 -237 0 -50 6
-73 29 -115 l28 -51 -111 -109 -111 -110 -50 28 c-40 23 -63 29 -113 29 -123
0 -215 -75 -237 -193 l-7 -37 -158 0 -158 0 -7 40 c-4 22 -21 62 -38 88 -68
101 -206 133 -312 73 l-50 -28 -111 110 -111 109 28 51 c60 109 28 246 -73
314 -26 17 -66 34 -88 38 l-40 7 0 158 0 158 40 7 c153 26 238 212 161 352
l-28 51 111 110 111 110 50 -29 c135 -78 324 9 350 161 l7 40 158 0 158 0 7
-40z m3023 -359 c420 -309 442 -326 425 -342 -10 -10 -232 -202 -493 -428
l-475 -412 -3 231 -2 230 -760 0 -760 0 0 240 0 240 -89 0 c-74 0 -92 3 -115
21 -34 27 -36 82 -4 116 l21 23 854 0 853 0 0 241 0 240 53 -38 c29 -21 252
-184 495 -362z"/>
<path d="M720 3427 c-19 -6 -58 -34 -85 -62 -71 -70 -91 -145 -63 -239 16 -55
99 -138 154 -154 94 -28 169 -8 239 63 98 97 101 222 8 325 -65 72 -158 97
-253 67z m135 -172 c50 -49 15 -135 -55 -135 -41 0 -80 39 -80 80 0 41 39 80
80 80 19 0 40 -9 55 -25z"/>
<path d="M1360 3427 c-19 -6 -58 -34 -85 -62 -71 -70 -91 -145 -63 -239 16
-55 99 -138 154 -154 94 -28 169 -8 239 63 98 97 101 222 8 325 -65 72 -158
97 -253 67z m135 -172 c50 -49 15 -135 -55 -135 -41 0 -80 39 -80 80 0 41 39
80 80 80 19 0 40 -9 55 -25z"/>
<path d="M2000 3427 c-49 -16 -133 -102 -148 -153 -28 -94 -8 -169 63 -239 51
-52 102 -75 165 -75 63 0 114 23 165 75 98 97 101 222 8 325 -65 72 -158 97
-253 67z m135 -172 c50 -49 15 -135 -55 -135 -41 0 -80 39 -80 80 0 41 39 80
80 80 19 0 40 -9 55 -25z"/>
<path d="M1061 1825 c-110 -24 -226 -89 -311 -175 -250 -250 -252 -649 -5
-895 122 -121 256 -183 419 -192 292 -16 560 170 649 452 17 55 22 94 22 185
0 91 -5 130 -22 185 -101 318 -428 510 -752 440z m254 -160 c256 -67 415 -329
350 -578 -45 -173 -178 -307 -350 -352 -250 -65 -513 94 -580 350 -89 342 238
669 580 580z"/>
<path d="M1125 1511 c-92 -24 -173 -90 -215 -176 -19 -41 -24 -66 -24 -135 -1
-78 2 -90 33 -148 38 -70 70 -100 145 -140 43 -22 64 -26 136 -26 72 0 93 4
136 26 75 40 107 70 145 140 31 58 34 70 33 148 0 72 -4 93 -26 136 -39 75
-70 107 -137 143 -65 34 -164 49 -226 32z m138 -165 c103 -43 128 -177 48
-257 -65 -65 -157 -65 -222 0 -124 123 13 325 174 257z"/>
</g>
</svg>
