<?xml version="1.0" standalone="no"?>
<!DOCTYPE svg PUBLIC "-//W3C//DTD SVG 20010904//EN"
 "http://www.w3.org/TR/2001/REC-SVG-20010904/DTD/svg10.dtd">
<svg version="1.0" xmlns="http://www.w3.org/2000/svg"
 width="512.000000pt" height="512.000000pt" viewBox="0 0 512.000000 512.000000"
 preserveAspectRatio="xMidYMid meet">

<g transform="translate(0.000000,512.000000) scale(0.100000,-0.100000)"
fill="#000000" stroke="none">
<path d="M1261 5098 c-60 -30 -96 -83 -111 -165 -49 -269 -245 -493 -519 -593
-45 -17 -123 -37 -174 -46 -50 -9 -103 -22 -118 -29 -39 -21 -87 -80 -94 -118
-4 -18 -5 -289 -3 -602 3 -455 6 -575 17 -597 18 -35 59 -52 94 -39 44 17 48
37 37 183 -5 73 -10 332 -10 575 0 497 -5 467 78 478 133 18 330 92 440 166
204 139 350 354 391 576 6 30 16 62 22 69 17 21 2481 21 2498 1 6 -8 16 -38
21 -68 43 -226 187 -439 392 -578 110 -74 307 -148 440 -166 83 -11 78 20 78
-483 0 -246 -5 -503 -10 -572 -9 -115 -9 -127 9 -150 27 -37 86 -35 115 3 21
28 21 37 24 605 3 395 0 588 -7 613 -6 21 -29 53 -51 72 -40 37 -56 43 -195
69 -337 65 -597 315 -655 631 -15 82 -51 136 -112 166 l-44 21 -1255 0 -1254
0 -44 -22z"/>
<path d="M1555 4760 c-63 -30 -80 -49 -139 -154 -76 -135 -140 -217 -243 -317
-105 -101 -224 -182 -366 -249 -120 -57 -159 -86 -190 -144 -21 -40 -22 -49
-21 -386 0 -353 8 -470 45 -680 135 -769 558 -1465 1204 -1984 240 -193 592
-409 686 -422 64 -9 110 7 249 87 916 522 1531 1360 1699 2319 37 208 45 327
45 680 1 318 0 348 -18 380 -33 63 -69 91 -185 146 -151 71 -267 150 -374 253
-103 100 -167 182 -243 317 -59 105 -76 124 -139 154 -39 19 -75 20 -1005 20
-930 0 -966 -1 -1005 -20z m1955 -133 c15 -7 42 -43 65 -87 152 -282 365 -483
667 -628 92 -44 120 -62 129 -84 18 -43 6 -710 -15 -858 -58 -401 -201 -802
-411 -1151 -225 -372 -564 -731 -941 -994 -187 -131 -403 -255 -444 -255 -51
0 -333 170 -541 327 -742 558 -1189 1339 -1269 2218 -14 154 -13 687 1 719 8
17 37 36 93 61 306 137 547 358 701 645 23 44 50 80 65 87 37 19 1863 19 1900
0z"/>
<path d="M2415 4345 c-216 -47 -389 -182 -489 -381 -61 -123 -68 -164 -73
-426 l-5 -238 -75 0 c-42 0 -94 -6 -117 -12 -54 -16 -128 -90 -144 -144 -16
-54 -17 -1130 -1 -1187 13 -47 69 -111 123 -140 l41 -22 885 0 885 0 47 23
c26 13 61 39 77 58 60 67 61 84 61 668 0 327 -4 548 -11 576 -14 62 -54 116
-108 148 -39 23 -61 28 -141 32 l-95 5 -5 250 c-6 243 -7 252 -34 325 -109
292 -378 482 -678 479 -46 0 -110 -7 -143 -14z m340 -165 c127 -44 247 -150
309 -272 54 -108 66 -181 66 -410 l0 -198 -565 0 -565 0 0 210 c0 115 5 233
11 262 36 175 183 343 356 408 111 41 270 42 388 0z m701 -1053 l24 -28 0
-550 0 -551 -29 -29 -29 -29 -862 0 -861 0 -24 25 -25 24 0 559 0 559 23 20
c12 11 29 23 37 26 8 3 399 5 868 4 l854 -2 24 -28z"/>
<path d="M2495 2782 c-48 -23 -69 -45 -91 -97 -28 -67 2 -164 61 -195 25 -13
25 -15 25 -132 0 -113 1 -120 25 -143 27 -28 42 -30 79 -14 35 16 46 57 46
171 0 98 0 100 30 125 42 35 60 74 60 129 0 123 -126 207 -235 156z"/>
<path d="M337 2642 c-26 -28 -21 -76 24 -233 178 -632 531 -1203 1027 -1662
275 -254 546 -442 922 -641 194 -102 232 -115 294 -98 57 15 399 198 559 300
698 444 1233 1091 1505 1822 60 161 132 409 132 456 0 67 -74 99 -118 52 -11
-13 -27 -52 -36 -88 -66 -285 -210 -635 -375 -911 -299 -501 -748 -946 -1271
-1261 -141 -85 -417 -228 -439 -228 -13 0 -96 39 -184 86 -423 225 -701 426
-997 723 -439 441 -747 974 -899 1561 -18 71 -36 119 -47 127 -26 19 -78 16
-97 -5z"/>
</g>
</svg>
