<?xml version="1.0" standalone="no"?>
<!DOCTYPE svg PUBLIC "-//W3C//DTD SVG 20010904//EN"
 "http://www.w3.org/TR/2001/REC-SVG-20010904/DTD/svg10.dtd">
<svg version="1.0" xmlns="http://www.w3.org/2000/svg"
 width="512.000000pt" height="512.000000pt" viewBox="0 0 512.000000 512.000000"
 preserveAspectRatio="xMidYMid meet">

<g transform="translate(0.000000,512.000000) scale(0.100000,-0.100000)"
fill="#000000" stroke="none">
<path d="M2365 5014 c-552 -59 -949 -228 -1256 -535 -171 -172 -284 -380 -342
-634 -18 -82 -21 -131 -24 -562 l-5 -473 -69 0 c-255 0 -491 -142 -598 -360
-94 -192 -94 -393 1 -589 57 -120 169 -232 289 -289 123 -60 200 -72 444 -72
192 0 206 1 225 20 20 20 20 33 20 639 l0 620 -22 15 c-15 11 -46 16 -95 16
l-73 0 0 413 c0 228 5 450 11 497 34 275 144 498 343 695 242 241 575 393
1009 462 158 25 517 24 677 -1 777 -122 1275 -548 1350 -1156 5 -46 10 -270
10 -497 l0 -413 -73 0 c-49 0 -80 -5 -95 -16 l-22 -15 0 -611 0 -611 -61 -116
c-212 -399 -469 -701 -730 -856 -81 -47 -252 -115 -294 -115 -14 0 -28 16 -49
56 -126 240 -520 244 -650 5 -61 -113 -42 -226 53 -322 78 -78 144 -103 271
-103 75 0 107 5 152 23 73 28 150 98 181 163 l24 51 90 22 c96 24 215 75 298
127 268 169 553 503 750 881 l67 127 174 0 c210 0 294 15 413 72 120 57 232
169 289 289 127 263 81 552 -117 750 -127 127 -263 186 -448 196 l-101 6 -5
471 c-3 430 -6 479 -24 561 -59 259 -172 465 -353 645 -126 124 -253 214 -425
299 -212 106 -419 170 -666 206 -100 15 -462 28 -544 19z m-1435 -2860 l0
-536 -192 4 c-175 4 -199 7 -258 29 -308 116 -445 452 -302 739 37 75 157 199
231 239 91 48 155 59 349 60 l172 1 0 -536z m3714 503 c331 -125 457 -507 262
-800 -63 -95 -156 -166 -274 -209 -48 -18 -87 -22 -249 -26 l-193 -4 0 537 0
537 193 -4 c176 -4 198 -7 261 -31z m-1909 -2097 c165 -83 146 -272 -32 -326
-124 -37 -269 12 -319 107 -43 85 22 197 138 235 63 20 154 13 213 -16z"/>
<path d="M2262 4434 c-21 -14 -22 -22 -22 -143 l0 -128 -77 -28 c-43 -15 -100
-38 -126 -52 l-49 -24 -93 90 c-61 59 -102 91 -116 91 -16 0 -82 -60 -221
-198 -170 -169 -198 -201 -198 -227 0 -25 16 -47 89 -119 l88 -88 -29 -58
c-16 -32 -39 -89 -52 -127 l-23 -68 -130 -5 c-89 -3 -135 -9 -147 -19 -14 -12
-16 -46 -16 -295 0 -228 3 -286 14 -302 13 -17 31 -20 146 -24 l131 -5 39 -97
c21 -53 46 -107 54 -120 15 -23 13 -26 -74 -113 -74 -74 -90 -95 -90 -120 0
-27 26 -57 199 -228 139 -138 205 -197 220 -197 15 0 55 31 116 90 l94 91 48
-24 c26 -14 83 -37 125 -52 l77 -27 3 -402 c3 -457 0 -440 93 -525 71 -66 124
-86 225 -86 101 0 154 20 225 86 93 85 90 68 93 525 l3 402 77 27 c42 15 99
38 125 52 l49 24 93 -90 c60 -58 102 -91 116 -91 15 0 84 61 220 197 244 242
238 222 109 348 -88 87 -90 89 -74 112 8 14 33 68 54 121 l39 97 131 5 c115 4
133 7 146 24 11 16 14 74 14 302 0 249 -2 283 -16 295 -12 10 -58 16 -147 19
l-130 5 -23 68 c-13 38 -36 95 -52 127 l-30 58 89 88 c74 72 89 92 89 118 0
26 -26 56 -193 223 -237 238 -220 232 -347 107 l-88 -85 -48 24 c-27 14 -84
37 -126 52 l-78 28 0 128 c0 121 -1 129 -22 143 -19 14 -65 16 -298 16 -233 0
-279 -2 -298 -16z m498 -223 c0 -92 3 -121 15 -131 8 -6 56 -27 107 -44 51
-18 130 -52 175 -75 98 -51 95 -52 204 56 l76 75 140 -139 141 -139 -84 -86
c-50 -52 -84 -95 -84 -108 0 -11 20 -60 44 -108 24 -48 56 -127 71 -175 17
-55 33 -91 45 -97 10 -5 71 -10 134 -10 l116 0 0 -200 0 -200 -123 0 c-146 0
-143 2 -177 -110 -12 -41 -42 -117 -66 -169 -25 -53 -43 -101 -42 -108 2 -7
41 -51 87 -98 l85 -86 -142 -141 -141 -142 -90 87 c-50 48 -97 87 -105 87 -7
0 -52 -20 -98 -45 -46 -24 -103 -51 -126 -59 l-42 -15 1 112 0 112 69 33 c431
205 583 789 313 1205 -148 230 -382 367 -653 384 -463 28 -855 -322 -887 -793
-22 -334 161 -660 448 -797 l68 -32 0 -112 1 -112 -39 14 c-22 7 -80 34 -130
60 -107 55 -102 57 -214 -53 l-77 -77 -142 142 -142 142 85 86 c46 47 85 91
87 98 1 7 -17 55 -42 108 -24 52 -54 128 -66 169 -34 112 -31 110 -177 110
l-123 0 0 200 0 200 116 0 c63 0 124 5 134 10 12 6 28 42 45 97 15 48 47 127
71 175 24 48 44 97 44 108 0 13 -34 56 -84 108 l-84 86 141 139 140 139 76
-75 c110 -108 105 -107 209 -54 48 25 125 57 172 72 123 40 120 36 120 177 l0
118 200 0 200 0 0 -119z m24 -489 c232 -80 391 -247 467 -492 34 -107 34 -292
0 -400 -56 -183 -182 -345 -332 -429 l-39 -22 0 88 0 88 61 45 c218 159 283
446 152 673 -37 62 -133 159 -189 188 -41 22 -46 23 -72 9 l-27 -16 -3 -155
-2 -156 -110 -92 c-61 -50 -116 -94 -123 -97 -8 -3 -66 39 -130 92 l-117 96
-2 156 -3 156 -27 16 c-26 14 -31 13 -72 -9 -56 -29 -152 -126 -189 -188 -131
-227 -66 -514 152 -673 l61 -45 0 -88 0 -88 -39 22 c-150 84 -276 246 -332
429 -34 108 -34 293 0 400 73 236 227 403 446 485 94 36 155 45 277 40 85 -3
124 -9 192 -33z m-564 -655 c82 -76 325 -267 340 -267 18 0 302 226 343 272
14 16 17 39 17 121 0 98 0 100 19 83 32 -29 79 -128 91 -193 29 -148 -54 -323
-189 -400 -90 -51 -81 37 -81 -796 l0 -740 -25 -43 c-31 -53 -107 -94 -175
-94 -68 0 -144 41 -175 94 l-25 43 0 740 c0 833 9 745 -81 796 -135 77 -218
252 -189 399 13 68 38 124 79 178 l26 35 5 -107 c4 -78 9 -111 20 -121z"/>
</g>
</svg>
