<?xml version="1.0" standalone="no"?>
<!DOCTYPE svg PUBLIC "-//W3C//DTD SVG 20010904//EN"
 "http://www.w3.org/TR/2001/REC-SVG-20010904/DTD/svg10.dtd">
<svg version="1.0" xmlns="http://www.w3.org/2000/svg"
 width="512.000000pt" height="512.000000pt" viewBox="0 0 512.000000 512.000000"
 preserveAspectRatio="xMidYMid meet">

<g transform="translate(0.000000,512.000000) scale(0.100000,-0.100000)"
fill="#000000" stroke="none">
<path d="M765 5026 c-88 -38 -139 -117 -140 -216 0 -107 60 -186 169 -220 97
-31 231 33 267 127 8 22 13 23 116 23 l107 0 145 -144 145 -144 -36 -41 c-20
-22 -42 -58 -49 -81 -11 -37 -10 -50 14 -124 15 -45 27 -85 27 -89 0 -4 -139
-7 -309 -7 -304 0 -310 0 -316 21 -18 55 -101 119 -173 132 -86 17 -195 -39
-239 -123 -21 -38 -24 -56 -21 -116 4 -84 33 -137 99 -181 48 -31 144 -43 202
-24 45 15 111 72 127 111 l12 30 295 0 c231 0 294 -3 291 -12 -2 -7 -51 -38
-109 -68 -93 -49 -106 -60 -126 -100 -14 -27 -23 -62 -23 -92 l0 -48 -335 0
c-306 0 -339 -2 -385 -19 -73 -28 -131 -80 -171 -153 l-34 -63 -3 -1357 -2
-1358 -104 0 c-90 0 -107 -3 -137 -23 -60 -40 -70 -74 -67 -217 3 -110 6 -132
30 -182 31 -66 90 -127 156 -159 l47 -24 2325 0 2325 0 47 24 c66 32 125 93
156 159 24 50 27 72 30 182 3 143 -7 177 -67 217 -30 20 -47 23 -137 23 l-104
0 -2 1353 -3 1352 -26 55 c-34 74 -76 120 -141 156 l-53 29 -352 3 -353 3 0
47 c0 30 -9 65 -22 92 -21 40 -34 51 -127 100 -58 30 -107 61 -109 68 -3 9 60
12 291 12 l295 0 12 -30 c16 -39 82 -96 127 -111 58 -19 154 -7 202 24 66 44
95 97 99 181 3 60 0 78 -21 116 -44 84 -153 140 -239 123 -72 -13 -155 -77
-173 -132 -6 -21 -12 -21 -316 -21 -170 0 -309 3 -309 7 0 4 12 44 27 89 24
74 25 87 14 124 -7 23 -29 59 -49 81 l-36 41 145 144 145 144 107 0 c103 0
108 -1 116 -23 15 -38 61 -87 102 -108 111 -56 243 -18 306 88 23 40 28 59 28
113 -1 134 -95 230 -225 230 -85 0 -168 -50 -206 -122 -14 -28 -15 -28 -122
-28 -166 0 -164 1 -344 -178 l-157 -155 -40 36 c-22 20 -58 41 -80 48 -37 11
-50 9 -152 -24 l-110 -35 -67 27 -67 27 -55 105 c-76 144 -86 149 -310 149
-224 0 -234 -5 -310 -149 l-55 -105 -67 -27 -67 -27 -110 35 c-102 33 -115 35
-152 24 -22 -7 -58 -28 -80 -48 l-40 -36 -157 155 c-180 179 -178 178 -344
178 -107 0 -108 0 -122 28 -21 39 -75 89 -118 106 -45 19 -132 20 -173 2z
m140 -161 c47 -46 23 -118 -42 -131 -27 -5 -37 -1 -63 24 -18 18 -30 41 -30
57 0 36 41 75 80 75 19 0 40 -9 55 -25z m3414 8 c11 -10 24 -32 27 -50 5 -27
1 -37 -25 -64 -27 -26 -37 -30 -64 -25 -65 13 -89 85 -42 131 29 30 74 33 104
8z m-1559 -242 c60 -113 60 -113 197 -171 39 -16 83 -30 97 -30 14 0 68 14
119 30 52 17 100 30 108 30 8 0 58 -44 112 -98 l97 -98 -35 -104 c-19 -57 -35
-115 -35 -128 0 -23 43 -134 79 -202 14 -28 39 -46 122 -90 102 -54 104 -56
104 -90 l0 -35 -314 0 -314 0 -13 55 c-58 229 -252 390 -491 407 -67 5 -87 3
-108 -11 -33 -22 -45 -53 -33 -89 13 -37 29 -43 125 -50 151 -10 272 -90 334
-220 50 -106 84 -97 -351 -97 -355 0 -380 1 -380 18 0 17 42 105 82 172 19 33
20 39 7 65 -16 34 -54 51 -92 41 -48 -12 -112 -130 -153 -284 -3 -10 -71 -12
-316 -10 l-313 3 0 35 c0 34 2 36 104 90 83 44 108 62 122 90 36 68 79 179 79
202 0 13 -16 71 -35 128 l-35 104 97 98 c54 54 104 98 112 98 8 0 56 -13 108
-30 51 -16 105 -30 119 -30 14 0 58 14 97 30 138 58 139 58 183 145 23 44 49
92 58 108 l15 28 143 -3 143 -3 55 -104z m-2004 -543 c26 -28 23 -86 -5 -109
-51 -42 -131 -11 -131 50 0 44 10 62 42 76 37 15 71 9 94 -17z m3734 -8 c16
-31 11 -79 -10 -100 -25 -25 -80 -26 -111 -1 -44 36 -22 124 35 133 31 5 75
-11 86 -32z m86 -615 c28 -16 49 -39 63 -68 21 -43 21 -43 21 -1375 l0 -1332
-756 0 -756 0 -67 -64 c-36 -36 -79 -69 -94 -75 -39 -15 -815 -15 -854 0 -15
6 -58 39 -94 75 l-67 64 -444 0 c-411 0 -446 -1 -461 -17 -29 -33 -31 -68 -4
-99 l25 -29 413 -3 413 -3 55 -53 c37 -35 76 -60 114 -74 56 -21 72 -22 477
-22 405 0 421 1 477 22 38 14 77 39 114 75 l56 53 881 0 882 0 0 -85 c0 -51
-6 -99 -14 -118 -16 -39 -61 -82 -99 -96 -40 -15 -4554 -15 -4594 0 -38 14
-83 57 -99 96 -8 19 -14 67 -14 117 l0 85 324 3 c302 3 325 4 345 22 27 25 28
79 1 106 -18 18 -33 20 -190 20 l-170 0 0 1332 c0 1330 0 1332 21 1375 13 28
35 52 62 68 l42 25 1974 0 1974 0 43 -25z"/>
<path d="M641 3304 c-21 -27 -21 -28 -21 -1205 0 -859 3 -1185 11 -1203 7 -14
25 -30 42 -36 42 -14 3732 -14 3774 0 17 6 35 22 42 36 8 18 11 344 11 1203 0
1177 0 1178 -21 1205 l-20 26 -1899 0 -1899 0 -20 -26z m3709 -1214 l0 -1090
-1790 0 -1790 0 0 1090 0 1090 1790 0 1790 0 0 -1090z"/>
<path d="M1845 3001 c-22 -10 -54 -34 -72 -52 -66 -70 -63 -31 -63 -858 l0
-749 28 -53 c40 -77 111 -119 199 -119 77 0 126 22 176 80 19 22 40 60 46 83
9 31 11 243 9 782 -3 736 -3 740 -25 780 -59 111 -189 157 -298 106z m150
-156 l25 -24 0 -724 c0 -718 0 -725 -21 -751 -27 -34 -82 -36 -116 -4 l-23 21
0 727 c0 721 0 728 21 754 28 35 80 36 114 1z"/>
<path d="M2465 3001 c-118 -54 -167 -193 -109 -309 47 -95 124 -132 276 -132
l88 0 0 -609 0 -609 28 -52 c16 -31 44 -65 70 -83 37 -27 54 -32 116 -35 59
-3 81 0 113 17 54 27 108 92 122 146 7 28 11 177 11 415 l0 371 -25 24 c-13
14 -36 25 -50 25 -14 0 -37 -11 -50 -25 l-25 -24 0 -374 c0 -364 -1 -375 -21
-401 -27 -35 -86 -36 -117 -3 l-22 23 0 646 c0 638 0 646 -21 672 -20 26 -21
26 -159 26 -149 0 -181 7 -199 47 -17 37 -13 62 14 88 l24 25 416 0 c247 0
424 -4 434 -10 31 -16 45 -64 29 -96 -21 -46 -50 -54 -199 -54 -181 0 -179 2
-179 -172 0 -125 0 -127 26 -147 35 -28 69 -26 99 4 22 21 25 33 25 93 l0 70
108 4 c84 3 116 8 147 25 84 44 128 117 129 210 0 51 -5 70 -30 109 -16 27
-49 62 -73 79 l-43 30 -456 2 c-425 3 -460 2 -497 -16z"/>
</g>
</svg>
